<?xml version="1.0" encoding="UTF-8"?>
<svg width="24px" height="24px" viewBox="0 0 24 24" version="1.1" xmlns="http://www.w3.org/2000/svg" xmlns:xlink="http://www.w3.org/1999/xlink">
    <!-- Generator: Sketch 63.1 (92452) - https://sketch.com -->
    <title>篮球</title>
    <desc>Created with Sketch.</desc>
    <g id="控件" stroke="none" stroke-width="1" fill="none" fill-rule="evenodd" opacity="0.400000006">
        <g id="比赛信息" transform="translate(-219.000000, -9.000000)" fill="#FFFFFF" fill-rule="nonzero">
            <g id="编组-3">
                <g transform="translate(219.000000, 7.000000)">
                    <g id="编组-4">
                        <path d="M12,2 C5.38125,2 0,7.38125 0,14 C0,20.61875 5.38125,26 12,26 C18.61875,26 24,20.61875 24,14 C24,7.38125 18.61875,2 12,2 Z M14.53125,24.2234375 C12.6703125,23.1828125 10.425,21.2703125 9.290625,17.80625 C8.7421875,16.1328125 7.8515625,13.746875 6.440625,12.3359375 C6.2390625,12.134375 6.0234375,11.9421875 5.803125,11.759375 C6.2953125,11.09375 6.8296875,10.465625 7.396875,9.865625 L19.2046875,21.6734375 C17.915625,22.8875 16.3125,23.7828125 14.53125,24.2234375 Z M1.4578125,14 C1.4578125,12.8328125 1.6546875,11.7125 2.00625,10.6625 C2.9390625,10.953125 3.815625,11.384375 4.6078125,11.9375 C3.496875,13.5640625 2.6109375,15.3453125 1.9734375,17.2390625 C1.640625,16.2171875 1.4578125,15.1296875 1.4578125,14 Z M2.315625,9.8421875 C2.803125,8.7078125 3.4921875,7.68125 4.33125,6.790625 L6.7828125,9.2421875 C6.1875,9.8703125 5.634375,10.5359375 5.11875,11.2296875 C4.26103055,10.6262198 3.31560516,10.1582501 2.315625,9.8421875 L2.315625,9.8421875 Z M12,24.5421875 C7.809375,24.5421875 4.190625,22.0765625 2.49375,18.5234375 C3.1078125,16.34375 4.0640625,14.3046875 5.30625,12.4765625 C5.484375,12.63125 5.6578125,12.7859375 5.8265625,12.9546875 C7.2515625,14.3796875 8.1609375,17.1640625 8.4609375,18.078125 C9.515625,21.29375 11.45625,23.2625 13.2609375,24.4625 C12.84375,24.509375 12.4265625,24.5421875 12,24.5421875 Z M4.9546875,6.18125 C5.803125,5.4125 6.7734375,4.775 7.8421875,4.315625 C8.1515625,5.3 8.6109375,6.2234375 9.1875,7.0578125 C8.5640625,7.5453125 7.9640625,8.0703125 7.396875,8.6234375 L4.9546875,6.18125 L4.9546875,6.18125 Z M8.6625,4.00625 C9.7125,3.6546875 10.8328125,3.4578125 12,3.4578125 C12.9890625,3.4578125 13.940625,3.603125 14.85,3.8609375 C13.06875,4.5359375 11.4046875,5.4359375 9.88125,6.5328125 C9.35625,5.759375 8.94375,4.9109375 8.6625,4.00625 Z M16.171875,4.3203125 C19.9171875,5.9421875 22.5421875,9.66875 22.5421875,14 C22.5421875,14.4265625 22.509375,14.84375 22.4578125,15.25625 C21.2578125,13.45625 19.2890625,11.5109375 16.0734375,10.45625 C15.159375,10.15625 12.375,9.246875 10.95,7.821875 C10.7578125,7.6296875 10.5796875,7.428125 10.4109375,7.2265625 C12.15,5.9796875 14.090625,4.9953125 16.171875,4.3203125 Z M19.81875,21.0453125 L8.0203125,9.2421875 C8.559375,8.7171875 9.121875,8.215625 9.7171875,7.7515625 C9.9140625,7.990625 10.1203125,8.2203125 10.340625,8.440625 C11.7515625,9.8515625 14.1375,10.7421875 15.8109375,11.290625 C19.275,12.425 21.1921875,14.6703125 22.228125,16.53125 C21.8015625,18.2375 20.9625,19.7796875 19.81875,21.0453125 Z" id="篮球"></path>
                    </g>
                </g>
            </g>
        </g>
    </g>
</svg>