<?xml version="1.0" encoding="UTF-8"?>
<svg width="149px" height="48px" viewBox="0 0 149 48" version="1.1" xmlns="http://www.w3.org/2000/svg" xmlns:xlink="http://www.w3.org/1999/xlink">
    <!-- Generator: Sketch 63.1 (92452) - https://sketch.com -->
    <title>logo</title>
    <desc>Created with Sketch.</desc>
    <g id="控件" stroke="none" stroke-width="1" fill="none" fill-rule="evenodd">
        <g id="导航（APP）" transform="translate(-80.000000, -24.000000)">
            <g id="标题/带返回按钮-copy-2">
                <g>
                    <g id="logo" transform="translate(80.000000, 24.000000)">
                        <path d="M69.5156886,8.82580549 C72.0544302,8.82580549 74.3304527,9.50978862 76.2973798,10.8613894 L76.2973798,10.8613894 L76.2973798,9.40028394 L82.6683781,9.40028394 L82.6683781,34.8585597 L76.2973798,34.8585597 L76.2973798,33.4708585 C74.2599321,34.8826266 72.0247877,35.5974155 69.6385618,35.5974155 C65.9592989,35.5974155 62.8090601,34.2556822 60.2767729,31.6092788 C57.7609804,28.9833323 56.4851552,25.807937 56.4851552,22.170456 C56.4851552,18.5288836 57.7714987,15.3631151 60.3078498,12.7609949 C62.8551973,10.1499699 65.9530835,8.82580549 69.5156886,8.82580549 Z M91.8951694,1.07792504 L91.8951694,35.1202336 L85.4079081,35.1202336 L85.4079081,1.07792504 L91.8951694,1.07792504 Z M100.952799,1.07792504 L100.952799,35.1202336 L94.4658323,35.1202336 L94.4658323,1.07792504 L100.952799,1.07792504 Z M35.6107719,0.282455195 L35.6107719,9.1485652 L40.2013675,9.22682068 C53.4497659,9.23719327 54.0897717,19.8027666 54.1105315,20.238456 L54.1111312,22.3469689 C54.1111312,34.6072199 42.6667809,35.101385 41.4869509,35.119754 L28.7101688,35.1203453 L28.7101688,0.282455195 L35.6107719,0.282455195 Z M69.7247007,15.2980629 C67.8218121,15.2980629 66.2593573,15.9750353 64.9488187,17.3674171 C63.608854,18.7900681 62.9574125,20.4226815 62.9574125,22.3587072 C62.9574125,24.2894479 63.6186627,25.9182176 64.9787233,27.3384663 C66.3191665,28.7387758 67.8713341,29.4193516 69.7247007,29.4193516 C71.5919431,29.4193516 73.1520055,28.7637598 74.4943626,27.4148599 C75.8376766,26.0671611 76.4903143,24.3997142 76.4903143,22.3173874 C76.4903143,20.3107336 75.8453322,18.671634 74.5192432,17.3061581 C73.2053553,15.9548558 71.637398,15.2980629 69.7247007,15.2980629 Z M40.2301985,16.0920674 L35.5751745,16.0920674 L35.5751745,28.2629063 L40.7466867,28.2631549 C40.9722989,28.2723044 47.7406648,28.495839 47.7406648,22.381978 C47.7406648,22.381978 48.353764,16.0709386 40.2301985,16.0920674 L40.2301985,16.0920674 Z" id="形状结合" fill="#FFD52C"></path>
                        <path d="M18.1934566,27.5622551 C16.8363419,28.9205465 15.2585821,29.5804226 13.3704481,29.5804226 C11.4970238,29.5804226 9.92779557,28.8952459 8.57244604,27.4851764 C7.19767973,26.0553959 6.52927207,24.415267 6.52927207,22.4712363 C6.52927207,20.52191 7.18738296,18.8782509 8.54184991,17.4458226 C9.8674859,16.0436963 11.4470109,15.3620499 13.3704481,15.3620499 C15.3047705,15.3620499 16.8901793,16.023397 18.2184631,17.3843362 C19.5596913,18.7588083 20.2113299,20.4092339 20.2113299,22.4300492 C20.2113299,24.5264722 19.5514539,26.2054346 18.1934566,27.5622551 L18.1934566,27.5622551 Z M20.0465816,9.533488 L20.0465816,11.0018078 C18.0566566,9.64381057 15.7534156,8.95628032 13.184812,8.95628032 C9.58005883,8.95628032 6.44513272,10.2869176 3.86799752,12.911418 C1.30115908,15.5265041 -5.88387033e-05,18.7079128 -5.88387033e-05,22.3682685 C-5.88387033e-05,26.0239172 1.29086231,29.2153284 3.83622462,31.8545385 C6.39894434,34.5140479 9.58623689,35.8626309 13.3092558,35.8626309 C15.7234078,35.8626309 17.9851676,35.1442104 20.0465816,33.7256092 L20.0465816,35.1200865 C20.0465816,35.1200865 20.0762951,37.582192 18.0031134,39.4585583 C16.6021639,40.725944 15.124724,41.475549 13.2207036,41.475549 C11.3228612,41.475549 9.78216978,40.826264 8.51095959,39.4894486 C7.72663968,38.6657068 7.19414941,37.7425275 6.89113009,36.7066721 L0.191166947,36.7066721 C0.620101094,39.4147235 1.83806225,41.8203438 3.83328268,43.8776391 C6.38394047,46.5074349 9.56299561,47.8410142 13.2827784,47.8410142 C17.0043264,47.8410142 20.1780861,46.5062582 22.7149168,43.872932 C25.0684649,41.4317142 26.3370273,38.489779 26.4929499,35.1200865 L26.4929499,9.533488 L20.0465816,9.533488 Z" id="Fill-24" fill="#FFFFFF"></path>
                        <path d="M108.587857,32.4934385 C108.587857,33.2259804 108.326024,33.880561 107.802654,34.4560035 C107.279284,35.0320344 106.598814,35.3197556 105.761539,35.3197556 C104.924265,35.3197556 104.243207,35.0320344 103.719836,34.4560035 C103.196466,33.880561 102.934634,33.2259804 102.934634,32.4934385 C102.934634,31.7606025 103.196466,31.1060219 103.719836,30.5302852 C104.243207,29.9545485 104.924265,29.6671214 105.761539,29.6671214 C106.598814,29.6671214 107.279284,29.9545485 107.802654,30.5302852 C108.326024,31.1060219 108.587857,31.7606025 108.587857,32.4934385" id="Fill-25" fill="#FFFFFF"></path>
                        <path d="M123.558982,12.9146247 L115.249781,12.9146247 L115.249781,27.7149121 C115.249781,28.6551546 115.339804,29.4321196 115.521027,30.0461015 C115.701662,30.660966 115.963494,31.1396188 116.307112,31.4826485 C116.650436,31.8265607 117.057011,32.0613271 117.527133,32.1878303 C117.996371,32.3146277 118.502678,32.3772909 119.044877,32.3772909 C119.550596,32.3772909 120.083674,32.3052135 120.644407,32.1604703 C121.204257,32.0166097 122.141264,31.4132188 122.647571,31.1602124 L122.717295,34.6128675 C122.067127,34.8661681 121.077754,35.205079 120.373161,35.3318764 C119.668567,35.4580854 118.900428,35.5219254 118.069331,35.5219254 C117.382095,35.5219254 116.659556,35.4310196 115.900831,35.250679 C115.141811,35.0703384 114.43663,34.7273087 113.786168,34.2204133 C113.135412,33.7146947 112.602333,33.0277528 112.187226,32.1604703 C111.771236,31.2928936 111.563536,30.1546589 111.563536,28.7451778 L111.563536,12.9146247 L106.304827,12.9146247 L106.304827,9.82441597 L111.563536,9.82441597 L111.563536,1.09363498 L115.249781,1.09363498 L115.249781,9.82441597 L122.406038,9.82441597 L123.558982,12.9146247 Z" id="Fill-26" fill="#FFFFFF"></path>
                        <polygon id="Fill-27" fill="#FFFFFF" points="138.56141 35.1963415 134.495656 35.1963415 124.140632 9.82450422 128.260812 9.82450422 136.501173 31.2926877 136.610024 31.2926877 144.904516 9.82450422 148.862008 9.82450422"></polygon>
                    </g>
                </g>
            </g>
        </g>
    </g>
</svg>